<svg data-v-1084b650="" xmlns="http://www.w3.org/2000/svg" viewBox="0 0 300 300"><!----> <!----> <rect data-v-1084b650="" fill="black" x="0" y="0" width="300px" height="300px" class="logo-background-square"></rect> <!----> <g data-v-1084b650="" id="6a72d54a-df00-8e09-0f99-538601fc42a2" fill="white" transform="matrix(4.299999999999999,0,0,4.299999999999999,34.20099567584697,102.80749263763428)"><path d="M7.18 5.28L7.18 5.28Q7.81 5.28 8.23 5.24L8.23 5.24L8.23 5.52L8.23 5.52Q7.95 5.59 7.69 5.87L7.69 5.87L7.69 5.87Q7.42 6.16 7.11 6.76L7.11 6.76L4.91 11.12L4.91 13.66L4.91 13.66Q4.91 14.20 5.00 14.43L5.00 14.43L5.00 14.43Q5.08 14.67 5.31 14.76L5.31 14.76L5.31 14.76Q5.54 14.84 6.05 14.87L6.05 14.87L6.05 15.15L6.05 15.15Q5.40 15.11 4.27 15.11L4.27 15.11L4.27 15.11Q3.07 15.11 2.48 15.15L2.48 15.15L2.48 14.87L2.48 14.87Q2.98 14.84 3.21 14.76L3.21 14.76L3.21 14.76Q3.44 14.67 3.53 14.43L3.53 14.43L3.53 14.43Q3.61 14.20 3.61 13.66L3.61 13.66L3.61 11.56L0.77 6.31L0.77 6.31Q0.52 5.85 0.33 5.69L0.33 5.69L0.33 5.69Q0.14 5.53-0.04 5.53L-0.04 5.53L-0.04 5.24L-0.04 5.24Q0.50 5.28 1.19 5.28L1.19 5.28L1.19 5.28Q2.55 5.28 3.15 5.24L3.15 5.24L3.15 5.53L3.15 5.53Q2.17 5.53 2.17 6.06L2.17 6.06L2.17 6.06Q2.17 6.27 2.31 6.55L2.31 6.55L4.63 11.02L6.43 7.46L6.43 7.46Q6.80 6.72 6.80 6.26L6.80 6.26L6.80 6.26Q6.80 5.87 6.50 5.70L6.50 5.70L6.50 5.70Q6.19 5.53 5.57 5.52L5.57 5.52L5.57 5.24L5.57 5.24Q6.37 5.28 7.18 5.28L7.18 5.28ZM7.99 17.78L7.99 17.51L7.99 17.51Q8.97 17.49 9.44 16.79L9.44 16.79L9.44 16.79Q9.91 16.09 9.91 14.42L9.91 14.42L9.91 6.72L9.91 6.72Q9.91 6.19 9.83 5.95L9.83 5.95L9.83 5.95Q9.74 5.71 9.51 5.63L9.51 5.63L9.51 5.63Q9.28 5.54 8.78 5.52L8.78 5.52L8.78 5.24L8.78 5.24Q9.37 5.28 10.54 5.28L10.54 5.28L10.54 5.28Q11.69 5.28 12.35 5.24L12.35 5.24L12.35 5.52L12.35 5.52Q11.84 5.54 11.61 5.63L11.61 5.63L11.61 5.63Q11.38 5.71 11.30 5.95L11.30 5.95L11.30 5.95Q11.21 6.19 11.21 6.72L11.21 6.72L11.21 11.84L11.21 11.84Q11.21 13.03 11.17 13.95L11.17 13.95L11.17 13.95Q11.13 14.87 10.98 15.50L10.98 15.50L10.98 15.50Q10.72 16.52 9.95 17.15L9.95 17.15L9.95 17.15Q9.17 17.78 7.99 17.78L7.99 17.78ZM16.67 7.74L16.67 7.74Q18.10 7.74 18.98 8.69L18.98 8.69L18.98 8.69Q19.85 9.63 19.85 11.55L19.85 11.55L19.85 11.55Q19.85 13.47 18.98 14.41L18.98 14.41L18.98 14.41Q18.10 15.34 16.67 15.34L16.67 15.34L16.67 15.34Q15.25 15.34 14.37 14.41L14.37 14.41L14.37 14.41Q13.50 13.47 13.50 11.55L13.50 11.55L13.50 11.55Q13.50 9.63 14.37 8.69L14.37 8.69L14.37 8.69Q15.25 7.74 16.67 7.74L16.67 7.74ZM16.67 8.02L16.67 8.02Q15.83 8.02 15.34 8.88L15.34 8.88L15.34 8.88Q14.85 9.74 14.85 11.55L14.85 11.55L14.85 11.55Q14.85 13.36 15.34 14.21L15.34 14.21L15.34 14.21Q15.83 15.06 16.67 15.06L16.67 15.06L16.67 15.06Q17.51 15.06 18.00 14.21L18.00 14.21L18.00 14.21Q18.49 13.36 18.49 11.55L18.49 11.55L18.49 11.55Q18.49 9.74 18.00 8.88L18.00 8.88L18.00 8.88Q17.51 8.02 16.67 8.02L16.67 8.02ZM27.27 7.78L27.27 13.64L27.27 13.64Q27.27 14.28 27.51 14.57L27.51 14.57L27.51 14.57Q27.75 14.87 28.34 14.87L28.34 14.87L28.34 15.16L28.34 15.16Q27.90 15.12 27.47 15.12L27.47 15.12L27.47 15.12Q26.59 15.12 26.01 15.32L26.01 15.32L26.01 13.66L26.01 13.66Q25.68 14.53 25.06 14.94L25.06 14.94L25.06 14.94Q24.44 15.34 23.72 15.34L23.72 15.34L23.72 15.34Q22.76 15.34 22.26 14.81L22.26 14.81L22.26 14.81Q22.01 14.53 21.90 14.10L21.90 14.10L21.90 14.10Q21.80 13.66 21.80 12.98L21.80 12.98L21.80 9.46L21.80 9.46Q21.80 8.82 21.56 8.53L21.56 8.53L21.56 8.53Q21.32 8.23 20.73 8.23L20.73 8.23L20.73 7.94L20.73 7.94Q21.17 7.98 21.60 7.98L21.60 7.98L21.60 7.98Q22.48 7.98 23.06 7.78L23.06 7.78L23.06 13.29L23.06 13.29Q23.06 13.82 23.12 14.15L23.12 14.15L23.12 14.15Q23.18 14.48 23.42 14.69L23.42 14.69L23.42 14.69Q23.65 14.90 24.12 14.90L24.12 14.90L24.12 14.90Q24.65 14.90 25.09 14.56L25.09 14.56L25.09 14.56Q25.52 14.22 25.77 13.64L25.77 13.64L25.77 13.64Q26.01 13.06 26.01 12.36L26.01 12.36L26.01 9.46L26.01 9.46Q26.01 8.82 25.77 8.53L25.77 8.53L25.77 8.53Q25.54 8.23 24.95 8.23L24.95 8.23L24.95 7.94L24.95 7.94Q25.38 7.98 25.82 7.98L25.82 7.98L25.82 7.98Q26.70 7.98 27.27 7.78L27.27 7.78ZM33.40 7.74L33.40 7.74Q33.96 7.74 34.32 8.06L34.32 8.06L34.32 8.06Q34.68 8.39 34.68 8.85L34.68 8.85L34.68 8.85Q34.68 9.21 34.46 9.47L34.46 9.47L34.46 9.47Q34.24 9.73 33.88 9.73L33.88 9.73L33.88 9.73Q33.57 9.73 33.36 9.53L33.36 9.53L33.36 9.53Q33.14 9.34 33.14 9.00L33.14 9.00L33.14 9.00Q33.14 8.54 33.61 8.25L33.61 8.25L33.61 8.25Q33.52 8.11 33.32 8.11L33.32 8.11L33.32 8.11Q32.77 8.11 32.33 8.53L32.33 8.53L32.33 8.53Q31.88 8.96 31.63 9.58L31.63 9.58L31.63 9.58Q31.37 10.19 31.37 10.74L31.37 10.74L31.37 13.71L31.37 13.71Q31.37 14.35 31.75 14.60L31.75 14.60L31.75 14.60Q32.12 14.85 32.86 14.85L32.86 14.85L32.86 15.15L32.52 15.13L32.52 15.13Q31.09 15.09 30.70 15.09L30.70 15.09L30.70 15.09Q30.34 15.09 29.05 15.15L29.05 15.15L29.05 14.85L29.05 14.85Q29.64 14.85 29.88 14.64L29.88 14.64L29.88 14.64Q30.11 14.42 30.11 13.85L30.11 13.85L30.11 9.46L30.11 9.46Q30.11 8.82 29.88 8.53L29.88 8.53L29.88 8.53Q29.64 8.23 29.05 8.23L29.05 8.23L29.05 7.94L29.05 7.94Q29.50 7.98 29.92 7.98L29.92 7.98L29.92 7.98Q30.80 7.98 31.37 7.78L31.37 7.78L31.37 9.53L31.37 9.53Q31.63 8.83 32.18 8.29L32.18 8.29L32.18 8.29Q32.73 7.74 33.40 7.74L33.40 7.74ZM39.98 7.74L39.98 7.74Q40.96 7.74 41.47 8.27L41.47 8.27L41.47 8.27Q41.73 8.55 41.85 8.97L41.85 8.97L41.85 8.97Q41.96 9.39 41.96 10.11L41.96 10.11L41.96 13.85L41.96 13.85Q41.96 14.42 42.20 14.64L42.20 14.64L42.20 14.64Q42.43 14.85 43.02 14.85L43.02 14.85L43.02 15.15L43.02 15.15Q41.73 15.09 41.34 15.09L41.34 15.09L41.34 15.09Q40.95 15.09 39.77 15.15L39.77 15.15L39.77 14.85L39.77 14.85Q40.29 14.85 40.50 14.64L40.50 14.64L40.50 14.64Q40.70 14.42 40.70 13.85L40.70 13.85L40.70 9.80L40.70 9.80Q40.70 9.02 40.47 8.60L40.47 8.60L40.47 8.60Q40.25 8.19 39.56 8.19L39.56 8.19L39.56 8.19Q38.99 8.19 38.54 8.53L38.54 8.53L38.54 8.53Q38.09 8.86 37.85 9.44L37.85 9.44L37.85 9.44Q37.60 10.02 37.60 10.74L37.60 10.74L37.60 13.85L37.60 13.85Q37.60 14.42 37.81 14.64L37.81 14.64L37.81 14.64Q38.01 14.85 38.53 14.85L38.53 14.85L38.53 15.15L38.53 15.15Q37.35 15.09 36.96 15.09L36.96 15.09L36.96 15.09Q36.57 15.09 35.28 15.15L35.28 15.15L35.28 14.85L35.28 14.85Q35.87 14.85 36.11 14.64L36.11 14.64L36.11 14.64Q36.34 14.42 36.34 13.85L36.34 13.85L36.34 9.46L36.34 9.46Q36.34 8.82 36.11 8.53L36.11 8.53L36.11 8.53Q35.87 8.23 35.28 8.23L35.28 8.23L35.28 7.94L35.28 7.94Q35.73 7.98 36.15 7.98L36.15 7.98L36.15 7.98Q37.03 7.98 37.60 7.78L37.60 7.78L37.60 9.44L37.60 9.44Q37.95 8.54 38.58 8.14L38.58 8.14L38.58 8.14Q39.20 7.74 39.98 7.74L39.98 7.74ZM45.51 15.25L45.51 15.25Q44.63 15.25 44.20 14.80L44.20 14.80L44.20 14.80Q43.78 14.36 43.78 13.58L43.78 13.58L43.78 13.58Q43.78 12.95 44.12 12.54L44.12 12.54L44.12 12.54Q44.46 12.14 44.93 11.90L44.93 11.90L44.93 11.90Q45.40 11.66 46.17 11.40L46.17 11.40L46.17 11.40Q46.96 11.13 47.33 10.91L47.33 10.91L47.33 10.91Q47.71 10.68 47.71 10.30L47.71 10.30L47.71 9.44L47.71 9.44Q47.71 8.62 47.37 8.32L47.37 8.32L47.37 8.32Q47.03 8.02 46.41 8.02L46.41 8.02L46.41 8.02Q45.43 8.02 45.02 8.53L45.02 8.53L45.02 8.53Q45.30 8.60 45.49 8.82L45.49 8.82L45.49 8.82Q45.68 9.04 45.68 9.38L45.68 9.38L45.68 9.38Q45.68 9.73 45.46 9.93L45.46 9.93L45.46 9.93Q45.23 10.14 44.88 10.14L44.88 10.14L44.88 10.14Q44.49 10.14 44.30 9.89L44.30 9.89L44.30 9.89Q44.10 9.65 44.10 9.30L44.10 9.30L44.10 9.30Q44.10 8.96 44.26 8.74L44.26 8.74L44.26 8.74Q44.42 8.51 44.74 8.29L44.74 8.29L44.74 8.29Q45.08 8.05 45.60 7.90L45.60 7.90L45.60 7.90Q46.12 7.74 46.73 7.74L46.73 7.74L46.73 7.74Q47.82 7.74 48.38 8.26L48.38 8.26L48.38 8.26Q48.73 8.58 48.85 9.04L48.85 9.04L48.85 9.04Q48.97 9.49 48.97 10.23L48.97 10.23L48.97 14.13L48.97 14.13Q48.97 14.48 49.07 14.63L49.07 14.63L49.07 14.63Q49.17 14.78 49.41 14.78L49.41 14.78L49.41 14.78Q49.57 14.78 49.72 14.71L49.72 14.71L49.72 14.71Q49.87 14.63 50.04 14.49L50.04 14.49L50.19 14.73L50.19 14.73Q49.83 15.01 49.57 15.13L49.57 15.13L49.57 15.13Q49.31 15.25 48.92 15.25L48.92 15.25L48.92 15.25Q48.24 15.25 47.98 14.91L47.98 14.91L47.98 14.91Q47.71 14.57 47.71 14L47.71 14L47.71 14Q47.29 14.70 46.75 14.97L46.75 14.97L46.75 14.97Q46.20 15.25 45.51 15.25L45.51 15.25ZM46.13 14.69L46.13 14.69Q47.05 14.69 47.71 13.62L47.71 13.62L47.71 10.88L47.71 10.88Q47.59 11.07 47.36 11.20L47.36 11.20L47.36 11.20Q47.14 11.33 46.68 11.54L46.68 11.54L46.68 11.54Q46.14 11.76 45.81 11.96L45.81 11.96L45.81 11.96Q45.49 12.17 45.25 12.52L45.25 12.52L45.25 12.52Q45.01 12.87 45.01 13.41L45.01 13.41L45.01 13.41Q45.01 14.04 45.32 14.36L45.32 14.36L45.32 14.36Q45.63 14.69 46.13 14.69L46.13 14.69ZM52.84 4.17L52.84 13.85L52.84 13.85Q52.84 14.42 53.07 14.64L53.07 14.64L53.07 14.64Q53.31 14.85 53.90 14.85L53.90 14.85L53.90 15.15L53.90 15.15Q52.61 15.09 52.21 15.09L52.21 15.09L52.21 15.09Q51.80 15.09 50.51 15.15L50.51 15.15L50.51 14.85L50.51 14.85Q51.10 14.85 51.34 14.64L51.34 14.64L51.34 14.64Q51.58 14.42 51.58 13.85L51.58 13.85L51.58 5.85L51.58 5.85Q51.58 5.21 51.34 4.91L51.34 4.91L51.34 4.91Q51.10 4.62 50.51 4.62L50.51 4.62L50.51 4.33L50.51 4.33Q50.95 4.37 51.38 4.37L51.38 4.37L51.38 4.37Q52.26 4.37 52.84 4.17L52.84 4.17Z"></path></g> <!----></svg>