<svg data-v-5f19e91b="" xmlns="http://www.w3.org/2000/svg" width="59.28229396529538" height="60" viewBox="0 0 59.28229396529538 60"><!----> <!----> <!----> <g data-v-5f19e91b="" id="b56ae5f0-2650-1ec6-5647-0220ea5176fb" fill="black" transform="matrix(4.784688645892082,0,0,4.784688645892082,0.19138767244454158,-25.071767409346187)"><path d="M7.18 5.28L7.18 5.28Q7.81 5.28 8.23 5.24L8.23 5.24L8.23 5.52L8.23 5.52Q7.95 5.59 7.69 5.87L7.69 5.87L7.69 5.87Q7.42 6.16 7.11 6.76L7.11 6.76L4.91 11.12L4.91 13.66L4.91 13.66Q4.91 14.20 5.00 14.43L5.00 14.43L5.00 14.43Q5.08 14.67 5.31 14.76L5.31 14.76L5.31 14.76Q5.54 14.84 6.05 14.87L6.05 14.87L6.05 15.15L6.05 15.15Q5.40 15.11 4.27 15.11L4.27 15.11L4.27 15.11Q3.07 15.11 2.48 15.15L2.48 15.15L2.48 14.87L2.48 14.87Q2.98 14.84 3.21 14.76L3.21 14.76L3.21 14.76Q3.44 14.67 3.53 14.43L3.53 14.43L3.53 14.43Q3.61 14.20 3.61 13.66L3.61 13.66L3.61 11.56L0.77 6.31L0.77 6.31Q0.52 5.85 0.33 5.69L0.33 5.69L0.33 5.69Q0.14 5.53-0.04 5.53L-0.04 5.53L-0.04 5.24L-0.04 5.24Q0.50 5.28 1.19 5.28L1.19 5.28L1.19 5.28Q2.55 5.28 3.15 5.24L3.15 5.24L3.15 5.53L3.15 5.53Q2.17 5.53 2.17 6.06L2.17 6.06L2.17 6.06Q2.17 6.27 2.31 6.55L2.31 6.55L4.63 11.02L6.43 7.46L6.43 7.46Q6.80 6.72 6.80 6.26L6.80 6.26L6.80 6.26Q6.80 5.87 6.50 5.70L6.50 5.70L6.50 5.70Q6.19 5.53 5.57 5.52L5.57 5.52L5.57 5.24L5.57 5.24Q6.37 5.28 7.18 5.28L7.18 5.28ZM7.99 17.78L7.99 17.51L7.99 17.51Q8.97 17.49 9.44 16.79L9.44 16.79L9.44 16.79Q9.91 16.09 9.91 14.42L9.91 14.42L9.91 6.72L9.91 6.72Q9.91 6.19 9.83 5.95L9.83 5.95L9.83 5.95Q9.74 5.71 9.51 5.63L9.51 5.63L9.51 5.63Q9.28 5.54 8.78 5.52L8.78 5.52L8.78 5.24L8.78 5.24Q9.37 5.28 10.54 5.28L10.54 5.28L10.54 5.28Q11.69 5.28 12.35 5.24L12.35 5.24L12.35 5.52L12.35 5.52Q11.84 5.54 11.61 5.63L11.61 5.63L11.61 5.63Q11.38 5.71 11.30 5.95L11.30 5.95L11.30 5.95Q11.21 6.19 11.21 6.72L11.21 6.72L11.21 11.84L11.21 11.84Q11.21 13.03 11.17 13.95L11.17 13.95L11.17 13.95Q11.13 14.87 10.98 15.50L10.98 15.50L10.98 15.50Q10.72 16.52 9.95 17.15L9.95 17.15L9.95 17.15Q9.17 17.78 7.99 17.78L7.99 17.78Z"></path></g> <!----></svg>